<svg width="28" height="37" viewBox="0 0 28 37" fill="none" xmlns="http://www.w3.org/2000/svg">
<path d="M20.595 6.49716C20.595 7.97099 20.0973 9.32906 19.2485 10.4209C19.2331 10.4402 19.2138 10.4634 19.1984 10.4865C17.9907 12.0144 16.0964 12.9982 13.9744 12.9982C11.8524 12.9982 9.95803 12.0144 8.74656 10.4865C8.72727 10.4634 8.70798 10.4364 8.68869 10.4094C7.84761 9.32135 7.35376 7.96713 7.35376 6.49716C7.35376 5.97245 7.41549 5.45932 7.53895 4.97319C8.11768 2.60813 10.012 0.748486 12.4195 0.181334C12.9172 0.0617308 13.4381 0 13.9744 0C14.5145 0 15.0392 0.0617308 15.5408 0.181334C17.9406 0.752344 19.8311 2.60812 20.4098 4.96547C20.5294 5.45546 20.595 5.96859 20.595 6.49716Z" fill="#7C7C7C"/>
<path d="M27.9447 22.5472C27.9447 30.1169 21.6907 36.263 13.9782 36.263C6.25796 36.263 0 30.1208 0 22.5472C0 17.6473 2.61584 13.3493 6.55118 10.9225C7.80508 12.7397 9.73031 14.0708 11.9796 14.5762C12.0375 14.5877 12.0992 14.6032 12.1571 14.6109C12.2613 14.634 12.3616 14.6572 12.4696 14.6688C12.3616 15.0006 12.2574 15.3285 12.1455 15.6565C12.3925 16.0268 12.6355 16.3972 12.8786 16.7715C12.4079 21.3511 11.941 25.9385 11.4742 30.5181L13.9434 32.5167L16.4821 30.5799C16.0114 25.9732 15.5446 21.3743 15.0739 16.7715C15.3208 16.4011 15.5639 16.0307 15.8069 15.6565C15.6989 15.3285 15.5947 14.9967 15.4829 14.6726C15.4906 14.6726 15.4983 14.6688 15.506 14.6688C15.5407 14.6649 15.5716 14.6572 15.6063 14.6495C15.6719 14.6418 15.7375 14.6302 15.8031 14.6148C18.1257 14.1479 20.1165 12.7937 21.4051 10.9302C25.3289 13.3493 27.9447 17.6511 27.9447 22.5472Z" fill="#ffffff"/>
<path d="M20.595 6.49716C20.595 7.97099 20.0973 9.32906 19.2485 10.4209C19.2331 10.4402 19.2138 10.4634 19.1984 10.4865C17.9907 12.0144 16.0964 12.9982 13.9744 12.9982C11.8524 12.9982 9.95803 12.0144 8.74656 10.4865C8.72727 10.4634 8.70798 10.4364 8.68869 10.4094C7.84761 9.32135 7.35376 7.96713 7.35376 6.49716C7.35376 5.97245 7.41549 5.45932 7.53895 4.97319C8.11768 2.60813 10.012 0.748486 12.4195 0.181334C12.9172 0.0617308 13.4381 0 13.9744 0C14.5145 0 15.0392 0.0617308 15.5408 0.181334C17.9406 0.752344 19.8311 2.60812 20.4098 4.96547C20.5294 5.45546 20.595 5.96859 20.595 6.49716Z" fill="#E14923"/>
</svg>
