<svg width="200" height="37" viewBox="0 0 200 37" fill="none" xmlns="http://www.w3.org/2000/svg">
<path d="M20.595 6.49716C20.595 7.97099 20.0973 9.32906 19.2485 10.4209C19.2331 10.4402 19.2138 10.4634 19.1984 10.4865C17.9907 12.0144 16.0964 12.9982 13.9744 12.9982C11.8524 12.9982 9.95803 12.0144 8.74656 10.4865C8.72727 10.4634 8.70798 10.4364 8.68869 10.4094C7.84761 9.32135 7.35376 7.96713 7.35376 6.49716C7.35376 5.97245 7.41549 5.45932 7.53895 4.97319C8.11768 2.60813 10.012 0.748486 12.4195 0.181334C12.9172 0.0617308 13.4381 0 13.9744 0C14.5145 0 15.0392 0.0617308 15.5408 0.181334C17.9406 0.752344 19.8311 2.60812 20.4098 4.96547C20.5294 5.45546 20.595 5.96859 20.595 6.49716Z" fill="#7C7C7C"/>
<path d="M27.9448 22.5472C27.9448 30.1169 21.6907 36.263 13.9782 36.263C6.25796 36.263 0 30.1208 0 22.5472C0 17.6473 2.61584 13.3493 6.55118 10.9225C7.80508 12.7397 9.73031 14.0708 11.9796 14.5762C12.0375 14.5877 12.0992 14.6032 12.1571 14.6109C12.2613 14.634 12.3616 14.6572 12.4696 14.6688C12.3616 15.0006 12.2574 15.3285 12.1455 15.6565C12.3925 16.0268 12.6355 16.3972 12.8786 16.7715C12.4079 21.3511 11.941 25.9385 11.4742 30.5181L13.9434 32.5167L16.4821 30.5799C16.0114 25.9732 15.5446 21.3743 15.0739 16.7715C15.3208 16.4011 15.5639 16.0307 15.8069 15.6565C15.6989 15.3285 15.5947 14.9967 15.4829 14.6726C15.4906 14.6726 15.4983 14.6688 15.506 14.6688C15.5407 14.6649 15.5716 14.6572 15.6063 14.6495C15.6719 14.6418 15.7375 14.6302 15.8031 14.6148C18.1257 14.1479 20.1165 12.7937 21.4051 10.9302C25.3289 13.3493 27.9448 17.6511 27.9448 22.5472Z" fill="#112336"/>
<path d="M20.595 6.49716C20.595 7.97099 20.0973 9.32906 19.2485 10.4209C19.2331 10.4402 19.2138 10.4634 19.1984 10.4865C17.9907 12.0144 16.0964 12.9982 13.9744 12.9982C11.8524 12.9982 9.95803 12.0144 8.74656 10.4865C8.72727 10.4634 8.70798 10.4364 8.68869 10.4094C7.84761 9.32135 7.35376 7.96713 7.35376 6.49716C7.35376 5.97245 7.41549 5.45932 7.53895 4.97319C8.11768 2.60813 10.012 0.748486 12.4195 0.181334C12.9172 0.0617308 13.4381 0 13.9744 0C14.5145 0 15.0392 0.0617308 15.5408 0.181334C17.9406 0.752344 19.8311 2.60812 20.4098 4.96547C20.5294 5.45546 20.595 5.96859 20.595 6.49716Z" fill="#E14923"/>
<path d="M39.994 26.2742C39.7355 26.9532 39.7702 27.4702 40.0981 27.8329C40.4261 28.1955 40.8003 28.3769 41.217 28.3769H41.4986V28.728H34.6697V28.3769H34.9513C35.4413 28.3769 35.9429 28.2148 36.456 27.8869C36.9691 27.5589 37.4013 27.0227 37.7524 26.278H39.994V26.2742Z" fill="#112336"/>
<path d="M46.6841 7.04883L46.8577 10.1662L39.014 28.6199H36.6335L44.8978 10.8993C44.9209 10.853 45.0019 10.6717 45.1447 10.3553C45.2836 10.0389 45.4495 9.66853 45.6347 9.23641C45.8199 8.8043 45.9858 8.39147 46.1247 7.99408C46.2635 7.59669 46.3446 7.28418 46.3716 7.04883H46.6841V7.04883Z" fill="#112336"/>
<path d="M50.3956 21.0889H41.2556V22.2463H50.3956V21.0889Z" fill="#112336"/>
<path d="M46.6841 7.04883L56.6305 28.5157H52.6026L45.4919 11.4934L46.6841 7.04883Z" fill="#112336"/>
<path d="M51.6573 26.2742H55.581C55.9321 27.0227 56.3642 27.5589 56.8774 27.883C57.3905 28.211 57.8805 28.373 58.3473 28.373H58.629V28.7241H50.1912V28.373H50.4728C50.8702 28.373 51.2329 28.1917 51.557 27.829C51.8772 27.4702 51.9119 26.9494 51.6573 26.2742Z" fill="#112336"/>
<path d="M61.7424 26.552V28.7242H59.115V28.3731H59.7091C60.2454 28.3731 60.7007 28.1994 61.0749 27.8483C61.4492 27.4973 61.6344 27.0651 61.6344 26.552H61.7424Z" fill="#112336"/>
<path d="M61.6382 7.18774L64.474 10.4788L64.5087 28.7241H61.6382V11.424C61.6382 10.2318 61.5225 8.81975 61.2871 7.18774H61.6382Z" fill="#112336"/>
<path d="M61.6382 7.18774L81.4923 25.3983L81.8782 29.2141L61.9854 10.934L61.6382 7.18774Z" fill="#112336"/>
<path d="M64.5089 26.552C64.5089 27.0651 64.7018 27.4973 65.0876 27.8483C65.4735 28.1994 65.921 28.3731 66.4341 28.3731H67.0283V28.7242H64.4009V26.552H64.5089Z" fill="#112336"/>
<path d="M79.0077 9.88455C78.9846 9.37142 78.784 8.9393 78.4136 8.58821C78.0393 8.23711 77.5841 8.0635 77.0478 8.0635H76.4536V7.7124H79.081V9.88455H79.0077Z" fill="#112336"/>
<path d="M81.8436 7.7124V24.8736C81.8436 25.6452 81.8667 26.3628 81.913 27.0264C81.9593 27.69 82.0519 28.4231 82.1947 29.214H81.8783L79.0078 25.8535V7.7124H81.8436Z" fill="#112336"/>
<path d="M81.7395 9.88455V7.7124H84.3669V8.0635H83.7728C83.2596 8.0635 82.8082 8.23711 82.4263 8.58821C82.0404 8.9393 81.8475 9.37142 81.8475 9.88455H81.7395Z" fill="#112336"/>
<path d="M89.8262 9.95407H89.722C89.6989 9.41779 89.4712 8.96638 89.0391 8.60371C88.607 8.24105 88.0861 8.05971 87.4804 8.05971C87.4573 8.05971 87.3068 8.05971 87.0251 8.05971V7.70862H89.8262V9.95407V9.95407Z" fill="#112336"/>
<path d="M89.8262 26.4825V28.7241H87.0251V28.373H87.4804C88.0861 28.373 88.607 28.1879 89.0391 27.8136C89.4712 27.4394 89.6989 26.9957 89.722 26.4825H89.8262Z" fill="#112336"/>
<path d="M93.0477 7.7124H89.7219V28.724H93.0477V7.7124Z" fill="#112336"/>
<path d="M92.9436 9.954V7.7124H95.7446V8.0635C95.463 8.0635 95.3125 8.0635 95.2894 8.0635C94.6836 8.0635 94.1628 8.24483 93.7307 8.6075C93.2986 8.97017 93.0709 9.41771 93.0478 9.95786H92.9436V9.954Z" fill="#112336"/>
<path d="M92.9436 26.4825H93.0478C93.0709 26.9957 93.2986 27.4394 93.7307 27.8136C94.1628 28.1879 94.6952 28.373 95.3241 28.373H95.7446L95.7794 28.7241H92.9436V26.4825V26.4825Z" fill="#112336"/>
<path d="M103.766 10.0582L99.9848 10.093C99.7494 9.46409 99.3945 8.96638 98.9161 8.60371C98.4377 8.24105 97.8589 8.05971 97.1837 8.05971H96.9021V7.70862H105.166V8.05971H104.885C104.51 8.05971 104.171 8.2179 103.87 8.53427C103.565 8.85064 103.53 9.35992 103.766 10.0582Z" fill="#E14923"/>
<path d="M99.1438 7.9209H102.994L108.284 23.261L107.339 29.1447L99.1438 7.9209Z" fill="#E14923"/>
<path d="M114.059 7.1877L114.48 10.1662L108.423 25.3983C108.164 26.1699 107.971 26.8412 107.844 27.4122C107.717 27.9833 107.639 28.562 107.616 29.1446H107.335L106.563 25.7108L113.708 7.18384H114.059V7.1877Z" fill="#E14923"/>
<path d="M114.059 7.18774L120.819 23.0178L119.7 29.1446L112.416 12.1609L114.059 7.18774Z" fill="#E14923"/>
<path d="M126.529 7.9209L120.715 25.3946C120.479 26.1893 120.306 26.8722 120.19 27.4433C120.074 28.0143 120.016 28.5814 120.016 29.1408H119.7L119.036 25.7804L124.43 7.9209H126.529V7.9209Z" fill="#E14923"/>
<path d="M123.763 10.093C123.975 9.37149 123.936 8.85064 123.659 8.53427C123.377 8.2179 123.053 8.05971 122.679 8.05971H122.397V7.70862H128.875V8.05971H128.628C127.976 8.05971 127.389 8.24105 126.876 8.60371C126.363 8.96638 126.001 9.46023 125.792 10.093H123.763Z" fill="#E14923"/>
<path d="M152.776 13.7196C152.182 12.3731 151.333 11.2195 150.237 10.2511C149.138 9.28268 147.857 8.53419 146.387 8.00948C144.917 7.48477 143.316 7.22241 141.591 7.22241C139.886 7.22241 138.304 7.48477 136.846 8.00948C135.387 8.53419 134.106 9.27882 133.011 10.2511C131.911 11.2195 131.066 12.3731 130.472 13.7196C129.878 15.0622 129.581 16.5592 129.581 18.2182C129.581 19.8734 129.878 21.3742 130.472 22.7168C131.066 24.0595 131.911 25.2131 133.011 26.1853C134.106 27.1537 135.384 27.9022 136.846 28.4269C138.304 28.9516 139.886 29.214 141.591 29.214C143.32 29.214 144.917 28.9516 146.387 28.4269C147.857 27.9022 149.138 27.1537 150.237 26.1853C151.333 25.2169 152.182 24.0595 152.776 22.7168C153.37 21.3703 153.667 19.8734 153.667 18.2182C153.671 16.5592 153.374 15.0622 152.776 13.7196ZM148.872 23.3689C148.146 24.8388 147.155 25.9808 145.893 26.8026C144.632 27.6167 143.196 28.0295 141.587 28.0295C140.021 28.0295 138.605 27.6206 137.332 26.8026C136.059 25.9847 135.067 24.8427 134.353 23.3689C133.64 21.8989 133.285 20.182 133.285 18.2221C133.285 16.2351 133.64 14.5144 134.353 13.056C135.063 11.5976 136.055 10.4594 137.332 9.64149C138.601 8.82355 140.021 8.41459 141.587 8.41459C143.2 8.41459 144.635 8.8197 145.893 9.64149C147.155 10.4556 148.146 11.5937 148.872 13.056C149.593 14.5144 149.956 16.2351 149.956 18.2221C149.96 20.182 149.593 21.8989 148.872 23.3689Z" fill="#E14923"/>
<path d="M158.887 9.91928H158.818C158.795 9.38299 158.602 8.9393 158.239 8.58821C157.877 8.23711 157.429 8.0635 156.889 8.0635C156.866 8.0635 156.785 8.0635 156.642 8.0635C156.503 8.0635 156.418 8.0635 156.399 8.0635V7.7124H159.2L158.887 9.91928Z" fill="#E14923"/>
<path d="M158.887 26.4825L159.204 28.7241H156.403V28.373C156.426 28.373 156.507 28.373 156.646 28.373C156.785 28.373 156.866 28.373 156.893 28.373C157.429 28.373 157.881 28.1879 158.243 27.8136C158.606 27.4394 158.799 26.9957 158.822 26.4825H158.887Z" fill="#E14923"/>
<path d="M162.178 7.7124H158.783V28.724H162.178V7.7124Z" fill="#E14923"/>
<path d="M162.074 26.4825H162.179C162.202 27.0188 162.406 27.4702 162.792 27.8329C163.178 28.1956 163.625 28.3769 164.139 28.3769C164.393 28.3769 164.536 28.3769 164.559 28.3769L164.594 28.728H161.758L162.074 26.4825Z" fill="#E14923"/>
<path d="M165.994 7.7124C167.044 7.7124 168.012 7.82815 168.9 8.0635C169.787 8.29884 170.562 8.64608 171.23 9.11292C171.894 9.57976 172.407 10.1701 172.769 10.88C173.132 11.5937 173.313 12.4387 173.313 13.4186C173.313 14.3292 173.109 15.2011 172.7 16.0268C172.291 16.8563 171.697 17.5507 170.914 18.1102C170.13 18.6696 169.193 19.0207 168.093 19.1596C168.606 19.3216 169.143 19.6959 169.706 20.2785C170.265 20.8611 170.721 21.4243 171.072 21.9606C171.118 22.0301 171.284 22.2693 171.562 22.6783C171.843 23.0872 172.198 23.5772 172.63 24.1482C173.063 24.7192 173.499 25.2748 173.942 25.8111C174.409 26.3937 174.833 26.8721 175.219 27.2463C175.605 27.6206 176.018 27.8984 176.462 28.0874C176.905 28.2726 177.407 28.3691 177.966 28.3691V28.7202H176.145C174.86 28.7202 173.799 28.5851 172.958 28.3189C172.117 28.0527 171.419 27.6707 170.856 27.1807C170.296 26.6908 169.783 26.1429 169.316 25.5333C169.201 25.3211 168.988 24.9893 168.687 24.534C168.383 24.0788 168.07 23.5965 167.742 23.0795C167.414 22.5664 167.117 22.088 166.851 21.6443C166.581 21.2006 166.415 20.8958 166.342 20.7337C165.944 20.0817 165.485 19.5416 164.957 19.121C164.432 18.7005 163.899 18.4921 163.363 18.4921V18.141C163.386 18.141 163.537 18.1488 163.818 18.1603C164.1 18.1719 164.47 18.1681 164.937 18.141C165.52 18.1179 166.106 18.0484 166.689 17.9327C167.271 17.817 167.815 17.5315 168.317 17.0762C168.819 16.6209 169.197 15.9033 169.455 14.9233C169.525 14.715 169.582 14.4565 169.629 14.1517C169.675 13.8469 169.687 13.5112 169.663 13.137C169.64 12.4155 169.505 11.7943 169.262 11.2812C169.015 10.7681 168.695 10.3437 168.298 10.0042C167.9 9.66464 167.453 9.41386 166.947 9.25181C166.446 9.08977 165.925 8.99332 165.389 8.97017C164.548 8.92387 163.807 8.91229 163.166 8.93544C162.526 8.95859 162.167 8.95859 162.098 8.93544C162.098 8.91229 162.067 8.80041 162.009 8.60364C161.951 8.40687 161.874 8.10979 161.781 7.7124H165.994V7.7124Z" fill="#E14923"/>
<path d="M181.196 9.95407H181.126C181.103 9.41779 180.899 8.96638 180.513 8.60371C180.127 8.24105 179.668 8.05971 179.131 8.05971C179.108 8.05971 178.969 8.05971 178.711 8.05971V7.70862H181.196V9.95407V9.95407Z" fill="#E14923"/>
<path d="M181.196 26.4825V28.7241H178.711V28.373C178.966 28.373 179.108 28.373 179.131 28.373C179.668 28.373 180.131 28.1879 180.513 27.8136C180.899 27.4394 181.103 26.9957 181.126 26.4825H181.196Z" fill="#E14923"/>
<path d="M184.483 7.7124H181.122V28.724H184.483V7.7124Z" fill="#E14923"/>
<path d="M184.382 9.954V7.7124H186.902V8.0635C186.879 8.0635 186.809 8.0635 186.693 8.0635C186.578 8.0635 186.508 8.0635 186.485 8.0635C185.926 8.0635 185.451 8.24483 185.065 8.6075C184.679 8.97017 184.487 9.41771 184.487 9.95786H184.382V9.954Z" fill="#E14923"/>
<path d="M184.382 26.4825H184.487C184.487 26.9957 184.679 27.4394 185.065 27.8136C185.451 28.1879 185.933 28.373 186.52 28.373H186.906V28.7241H184.386V26.4825H184.382Z" fill="#E14923"/>
<path d="M196.883 7.95935L187.426 18.4652L185.64 18.5346L194.255 7.95935H196.883Z" fill="#E14923"/>
<path d="M188.302 16.3972L196.952 26.6947C197.35 27.2541 197.782 27.6708 198.249 27.937C198.716 28.2071 199.298 28.3537 200 28.373V28.7241H198.145C197.886 28.7241 197.531 28.7048 197.076 28.6701C196.621 28.6353 196.111 28.5543 195.552 28.427C194.992 28.2997 194.425 28.0759 193.854 27.7634C193.283 27.447 192.762 27.011 192.296 26.4516C192.249 26.3822 192.06 26.1468 191.736 25.7494C191.408 25.352 190.995 24.8505 190.494 24.2447C189.992 23.639 189.46 23.014 188.9 22.3697C188.341 21.7292 187.816 21.1158 187.326 20.5293C186.836 19.9467 186.277 19.2793 185.644 18.5346L188.302 16.3972Z" fill="#E14923"/>
<path d="M199.124 7.7124V8.0635H198.985C198.283 8.0635 197.631 8.17924 197.026 8.41459C196.42 8.64994 195.918 8.99717 195.521 9.46401L193.032 9.42929C193.291 9.10134 193.337 8.79269 193.171 8.49947C193.009 8.20625 192.716 8.0635 192.295 8.0635H191.979V7.7124H198.982H199.124Z" fill="#E14923"/>
</svg>
